<mxfile host="app.diagrams.net" agent="Mozilla/5.0 (Windows NT 10.0; Win64; x64) AppleWebKit/537.36 (KHTML, like Gecko) Chrome/131.0.0.0 Safari/537.36" version="25.0.3">
  <diagram name="Trang-1" id="WyQpkwmWxBcgukyWT0Gx">
    <mxGraphModel dx="794" dy="454" grid="1" gridSize="10" guides="1" tooltips="1" connect="1" arrows="1" fold="1" page="1" pageScale="1" pageWidth="827" pageHeight="1169" math="0" shadow="0">
      <root>
        <mxCell id="0" />
        <mxCell id="1" parent="0" />
        <mxCell id="LoimLhY4TlHTlZYWAXN2-3" style="edgeStyle=orthogonalEdgeStyle;rounded=0;orthogonalLoop=1;jettySize=auto;html=1;" edge="1" parent="1" source="LoimLhY4TlHTlZYWAXN2-1" target="LoimLhY4TlHTlZYWAXN2-2">
          <mxGeometry relative="1" as="geometry" />
        </mxCell>
        <mxCell id="LoimLhY4TlHTlZYWAXN2-1" value="START" style="ellipse;whiteSpace=wrap;html=1;" vertex="1" parent="1">
          <mxGeometry x="290" y="310" width="120" height="80" as="geometry" />
        </mxCell>
        <mxCell id="LoimLhY4TlHTlZYWAXN2-2" value="INPUT a" style="shape=parallelogram;html=1;strokeWidth=2;perimeter=parallelogramPerimeter;whiteSpace=wrap;rounded=1;arcSize=12;size=0.23;" vertex="1" parent="1">
          <mxGeometry x="300" y="450" width="100" height="60" as="geometry" />
        </mxCell>
        <mxCell id="LoimLhY4TlHTlZYWAXN2-6" style="edgeStyle=orthogonalEdgeStyle;rounded=0;orthogonalLoop=1;jettySize=auto;html=1;" edge="1" parent="1" source="LoimLhY4TlHTlZYWAXN2-4">
          <mxGeometry relative="1" as="geometry">
            <mxPoint x="490" y="610" as="targetPoint" />
          </mxGeometry>
        </mxCell>
        <mxCell id="LoimLhY4TlHTlZYWAXN2-7" style="edgeStyle=orthogonalEdgeStyle;rounded=0;orthogonalLoop=1;jettySize=auto;html=1;" edge="1" parent="1" source="LoimLhY4TlHTlZYWAXN2-4">
          <mxGeometry relative="1" as="geometry">
            <mxPoint x="350" y="730" as="targetPoint" />
          </mxGeometry>
        </mxCell>
        <mxCell id="LoimLhY4TlHTlZYWAXN2-4" value="a%2==0" style="strokeWidth=2;html=1;shape=mxgraph.flowchart.decision;whiteSpace=wrap;" vertex="1" parent="1">
          <mxGeometry x="300" y="560" width="100" height="100" as="geometry" />
        </mxCell>
        <mxCell id="LoimLhY4TlHTlZYWAXN2-5" style="edgeStyle=orthogonalEdgeStyle;rounded=0;orthogonalLoop=1;jettySize=auto;html=1;entryX=0.5;entryY=0;entryDx=0;entryDy=0;entryPerimeter=0;" edge="1" parent="1" source="LoimLhY4TlHTlZYWAXN2-2" target="LoimLhY4TlHTlZYWAXN2-4">
          <mxGeometry relative="1" as="geometry" />
        </mxCell>
        <mxCell id="LoimLhY4TlHTlZYWAXN2-8" value="a là số lẻ" style="strokeWidth=2;html=1;shape=mxgraph.flowchart.display;whiteSpace=wrap;" vertex="1" parent="1">
          <mxGeometry x="300" y="730" width="100" height="60" as="geometry" />
        </mxCell>
        <mxCell id="LoimLhY4TlHTlZYWAXN2-9" value="a là số chẵn" style="strokeWidth=2;html=1;shape=mxgraph.flowchart.display;whiteSpace=wrap;" vertex="1" parent="1">
          <mxGeometry x="490" y="580" width="100" height="60" as="geometry" />
        </mxCell>
        <mxCell id="LoimLhY4TlHTlZYWAXN2-10" value="END" style="strokeWidth=2;html=1;shape=mxgraph.flowchart.start_1;whiteSpace=wrap;" vertex="1" parent="1">
          <mxGeometry x="490" y="730" width="100" height="60" as="geometry" />
        </mxCell>
        <mxCell id="LoimLhY4TlHTlZYWAXN2-11" style="edgeStyle=orthogonalEdgeStyle;rounded=0;orthogonalLoop=1;jettySize=auto;html=1;entryX=0;entryY=0.5;entryDx=0;entryDy=0;entryPerimeter=0;" edge="1" parent="1" source="LoimLhY4TlHTlZYWAXN2-8" target="LoimLhY4TlHTlZYWAXN2-10">
          <mxGeometry relative="1" as="geometry" />
        </mxCell>
        <mxCell id="LoimLhY4TlHTlZYWAXN2-12" style="edgeStyle=orthogonalEdgeStyle;rounded=0;orthogonalLoop=1;jettySize=auto;html=1;entryX=0.5;entryY=0;entryDx=0;entryDy=0;entryPerimeter=0;" edge="1" parent="1" source="LoimLhY4TlHTlZYWAXN2-9" target="LoimLhY4TlHTlZYWAXN2-10">
          <mxGeometry relative="1" as="geometry" />
        </mxCell>
      </root>
    </mxGraphModel>
  </diagram>
</mxfile>
